<svg width="129" height="32" viewBox="0 0 129 32" fill="none" xmlns="http://www.w3.org/2000/svg">
<path d="M2.208 32C1.94133 32 1.808 31.8667 1.808 31.6V16.768C1.808 16.6293 1.86133 16.4693 1.968 16.288L5.76 10.912C5.87733 10.752 6.048 10.672 6.272 10.672H11.568C11.8027 10.672 11.9733 10.752 12.08 10.912L15.888 16.288C15.9947 16.4373 16.048 16.5973 16.048 16.768V31.6C16.048 31.8667 15.9147 32 15.648 32H11.12C10.8533 32 10.72 31.8667 10.72 31.6V24.8H7.152V31.6C7.152 31.8667 7.01867 32 6.752 32H2.208ZM8.928 21.36C9.90933 21.36 10.5707 21.1467 10.912 20.72C11.264 20.2827 11.44 19.456 11.44 18.24C11.44 17.024 11.264 16.2027 10.912 15.776C10.5707 15.3387 9.90933 15.12 8.928 15.12C7.95733 15.12 7.296 15.3387 6.944 15.776C6.60267 16.2027 6.432 17.024 6.432 18.24C6.432 19.456 6.60267 20.2827 6.944 20.72C7.296 21.1467 7.95733 21.36 8.928 21.36ZM23.795 32C23.5497 32 23.3363 31.9093 23.155 31.728L19.955 28.528C19.7737 28.3573 19.683 28.144 19.683 27.888V18.512C19.683 18.256 19.7737 18.0427 19.955 17.872L23.155 14.672C23.3363 14.4907 23.5497 14.4 23.795 14.4H26.243C26.499 14.4 26.7123 14.4907 26.883 14.672L27.683 15.472V11.072C27.683 10.8053 27.8163 10.672 28.083 10.672H32.355C32.6217 10.672 32.755 10.8053 32.755 11.072V31.6C32.755 31.8667 32.6217 32 32.355 32H29.027C28.8883 32 28.7817 31.9733 28.707 31.92C28.643 31.8667 28.5683 31.8027 28.483 31.728L27.683 30.928L26.883 31.728C26.7123 31.9093 26.499 32 26.243 32H23.795ZM25.667 28.272H26.787C27.1283 28.272 27.363 28.2027 27.491 28.064C27.619 27.9253 27.683 27.68 27.683 27.328V18.128H25.667C25.315 18.128 25.075 18.1973 24.947 18.336C24.819 18.4747 24.755 18.72 24.755 19.072V27.328C24.755 27.68 24.819 27.9253 24.947 28.064C25.075 28.2027 25.315 28.272 25.667 28.272Z" fill="#A5A9B1"/>
<path d="M36.8825 32C36.6158 32 36.4825 31.8667 36.4825 31.6V14.8C36.4825 14.5333 36.6158 14.4 36.8825 14.4H44.1625C44.4078 14.4 44.6212 14.4907 44.8025 14.672L46.7705 16.64H47.3625L49.3305 14.672C49.5118 14.4907 49.7252 14.4 49.9705 14.4H53.4425C53.6878 14.4 53.9012 14.4907 54.0825 14.672L57.2825 17.872C57.4638 18.0427 57.5545 18.256 57.5545 18.512V31.6C57.5545 31.8667 57.4212 32 57.1545 32H52.8825C52.6158 32 52.4825 31.8667 52.4825 31.6V19.072C52.4825 18.624 52.2585 18.4 51.8105 18.4H49.5545V31.6C49.5545 31.8667 49.4212 32 49.1545 32H44.8825C44.6158 32 44.4825 31.8667 44.4825 31.6V19.072C44.4825 18.624 44.2585 18.4 43.8105 18.4H41.5545V31.6C41.5545 31.8667 41.4212 32 41.1545 32H36.8825ZM61.695 32C61.4283 32 61.295 31.8667 61.295 31.6V14.8C61.295 14.5333 61.4283 14.4 61.695 14.4H65.951C66.2177 14.4 66.351 14.5333 66.351 14.8V31.6C66.351 31.8667 66.2177 32 65.951 32H61.695ZM61.615 13.072C61.4017 13.072 61.295 12.9653 61.295 12.752V10.72C61.295 10.5067 61.4017 10.4 61.615 10.4H66.063C66.255 10.4 66.351 10.5067 66.351 10.72V12.752C66.351 12.9653 66.255 13.072 66.063 13.072H61.615ZM70.4763 32C70.2096 32 70.0763 31.8667 70.0763 31.6V14.8C70.0763 14.5333 70.2096 14.4 70.4763 14.4H79.0363C79.2816 14.4 79.4949 14.4907 79.6763 14.672L82.8763 17.872C83.0576 18.0427 83.1483 18.256 83.1483 18.512V31.6C83.1483 31.8667 83.0149 32 82.7483 32H78.4763C78.2096 32 78.0763 31.8667 78.0763 31.6V19.152C78.0763 18.6507 77.8256 18.4 77.3243 18.4H75.1483V31.6C75.1483 31.8667 75.0149 32 74.7483 32H70.4763Z" fill="#202224"/>
</svg>
