<svg width="192" height="120" viewBox="0 0 192 120" fill="none" xmlns="http://www.w3.org/2000/svg">
<g clip-path="url(#clip0_342_1667)">
<rect width="192" height="119.586" rx="59.7931" fill="black"/>
<path d="M50.0871 36.5364C53.0366 36.1847 56.1485 36.0088 59.4227 36.0088C63.0216 36.0088 66.2416 36.577 69.0829 37.7135C71.9512 38.85 74.2648 40.3112 76.0237 42.0972C77.8096 43.856 79.2708 45.9396 80.4073 48.3479C81.5438 50.7562 82.3285 53.151 82.7615 55.5322C83.2215 57.8864 83.4515 60.3082 83.4515 62.7977C83.4515 70.9967 81.1514 77.5586 76.5513 82.4835C71.9512 87.4083 65.3216 89.8707 56.6626 89.8707L50.0059 89.7895C49.7354 78.5598 49.6001 70.1714 49.6001 64.6242C49.6001 54.5851 49.7624 45.2225 50.0871 36.5364ZM58.8138 94.4573C49.7489 94.4573 40.6975 94.5655 31.6596 94.782C30.9831 92.9149 30.9831 91.1696 31.6596 89.546C37.5315 88.9507 40.4945 88.1524 40.5487 87.1512C40.8734 78.6545 41.0357 70.1443 41.0357 61.6206C41.0357 52.9074 40.9004 45.3714 40.6298 39.0124C40.5757 38.0112 37.5586 37.2129 31.5784 36.6176C31.1184 34.8858 31.1725 33.1405 31.7408 31.3816C35.0691 31.4357 45.4329 31.4628 62.8321 31.4628C66.5934 31.4628 70.0435 31.6928 73.1824 32.1528C76.3484 32.6128 79.5684 33.5464 82.8426 34.9535C86.1168 36.3335 88.8769 38.1465 91.1228 40.3924C93.3688 42.6384 95.1953 45.669 96.6024 49.4844C98.0095 53.2998 98.713 57.7646 98.713 62.8789C98.713 67.7496 97.8877 72.0655 96.2371 75.8268C94.5865 79.5881 92.4217 82.6188 89.7428 84.9188C87.091 87.2189 83.9656 89.113 80.3667 90.6013C76.7678 92.0625 73.223 93.0637 69.7323 93.6049C66.2416 94.1732 62.6021 94.4573 58.8138 94.4573ZM56.3379 37.9976C56.0132 47.4955 55.8508 56.371 55.8508 64.6242C55.8508 71.3349 55.959 79.1957 56.1755 88.2065C64.6993 87.9901 71.0988 85.5953 75.3742 81.0222C79.6496 76.4492 81.7873 70.3743 81.7873 62.7977C81.7873 59.8482 81.4355 57.034 80.732 54.3551C80.0285 51.6492 78.9055 49.0244 77.3631 46.4808C75.8207 43.9372 73.5612 41.8807 70.5847 40.3112C67.6352 38.7147 64.1581 37.8624 60.1533 37.7541C58.8273 37.7541 57.5555 37.8353 56.3379 37.9976ZM32.7961 93.0367C38.6139 92.8743 46.3259 92.7931 55.932 92.7931C59.3685 92.7931 62.6833 92.5361 65.8763 92.0219C69.0964 91.4807 72.3571 90.5066 75.6583 89.0995C78.9596 87.6924 81.8144 85.9065 84.2227 83.7417C86.631 81.577 88.6063 78.6951 90.1487 75.0962C91.7182 71.4973 92.5029 67.3978 92.5029 62.7977C92.5029 43.0172 81.6385 33.1269 59.9097 33.1269C57.9073 33.1269 55.0661 33.1675 51.386 33.2487C47.7059 33.3299 44.364 33.3705 41.3604 33.3705C38.3839 33.3705 35.5562 33.2893 32.8773 33.1269C32.6608 33.614 32.6608 34.2499 32.8773 35.0346C39.101 35.6299 42.2399 36.9288 42.294 38.9312C42.5646 45.2902 42.6999 52.8533 42.6999 61.6206C42.6999 70.1984 42.5375 78.7357 42.2128 87.2324C42.1587 89.2348 39.0198 90.5337 32.7961 91.129C32.5255 91.7513 32.5255 92.3872 32.7961 93.0367ZM139.749 94.4573C143.862 94.4573 148.07 93.5237 152.372 91.6566C156.702 89.7625 160.125 86.9889 162.641 83.3358C162.641 82.9841 162.479 82.6864 162.154 82.4429C161.856 82.1993 161.518 82.0776 161.139 82.0776C157.08 87.0024 151.114 89.4648 143.239 89.4648C134.932 89.4648 128.654 86.9618 124.406 81.9558C120.185 76.9227 118.074 70.672 118.074 63.2036C118.074 59.8211 118.439 56.5605 119.17 53.4216C119.928 50.2556 121.091 47.2385 122.661 44.3702C124.257 41.4748 126.517 39.1341 129.439 37.3482C132.389 35.5623 135.825 34.6693 139.749 34.6693C142.428 34.6693 144.904 35.0888 147.177 35.9276C149.45 36.7664 151.317 37.7541 152.778 38.8906C154.239 40.0271 155.66 41.556 157.04 43.4772C158.447 45.3714 159.502 47.022 160.206 48.4291C160.936 49.8091 161.802 51.568 162.803 53.7057C163.615 53.5974 164.116 53.2998 164.305 52.8127C162.303 44.7761 159.272 39.2694 155.213 36.2929C151.181 33.2893 146.027 31.7875 139.749 31.7875C137.205 31.7875 134.607 32.0987 131.956 32.721C129.304 33.3164 126.571 34.3987 123.757 35.9682C120.969 37.5106 118.507 39.4318 116.369 41.7319C114.232 44.0049 112.473 47.0085 111.093 50.7427C109.713 54.4498 109.023 58.6035 109.023 63.2036C109.023 67.8037 109.713 71.9573 111.093 75.6645C112.473 79.3716 114.232 82.3617 116.369 84.6347C118.507 86.9077 120.969 88.8154 123.757 90.3578C126.571 91.8731 129.304 92.9284 131.956 93.5237C134.607 94.1461 137.205 94.4573 139.749 94.4573ZM161.789 55.5322C160.625 52.9345 159.556 50.7968 158.582 49.1191C157.608 47.4144 156.309 45.5202 154.686 43.4366C153.062 41.326 151.127 39.6889 148.881 38.5253C146.635 37.3617 144.119 36.6582 141.332 36.4147C138.247 36.6582 135.555 37.6459 133.254 39.3777C130.954 41.0824 129.168 43.2742 127.897 45.9531C126.652 48.632 125.732 51.4192 125.137 54.3145C124.568 57.1828 124.284 60.1458 124.284 63.2036C124.284 70.0226 126.003 75.7456 129.439 80.3728C132.876 85 138.003 87.4759 144.822 87.8006C151.425 87.4759 156.607 85.0135 160.368 80.4134C161.423 80.4134 162.343 80.7652 163.128 81.4687C163.913 82.1452 164.305 82.957 164.305 83.9041C161.572 87.8818 157.879 90.9125 153.224 92.9961C148.57 95.0796 144.078 96.1214 139.749 96.1214C137.043 96.1214 134.296 95.7967 131.509 95.1473C128.749 94.5249 125.881 93.4155 122.904 91.819C119.955 90.1954 117.343 88.1795 115.07 85.7712C112.797 83.3629 110.944 80.2105 109.51 76.3139C108.076 72.3903 107.359 68.0202 107.359 63.2036C107.359 58.1705 108.103 53.6786 109.591 49.7279C111.079 45.7502 112.987 42.5707 115.314 40.1895C117.641 37.8082 120.361 35.8329 123.472 34.2634C126.584 32.6669 129.601 31.5845 132.524 31.0163C135.473 30.421 138.436 30.1233 141.413 30.1233C145.472 30.1233 149.883 30.6645 154.645 31.7469C159.407 32.8293 162.817 33.5058 164.873 33.7764C163.981 37.267 163.629 40.3383 163.818 42.9901C164.008 45.6149 164.779 48.835 166.132 52.6504C165.347 54.2469 163.899 55.2075 161.789 55.5322Z" fill="white"/>
</g>
<defs>
<clipPath id="clip0_342_1667">
<rect width="192" height="119.586" rx="59.7931" fill="white"/>
</clipPath>
</defs>
</svg>
