<svg width="143" height="46" viewBox="0 0 143 46" fill="none" xmlns="http://www.w3.org/2000/svg">
<rect width="142" height="46" transform="translate(0.5)" fill="black"/>
<path d="M13.708 35C13.4413 35 13.308 34.8667 13.308 34.6V14.072C13.308 13.8053 13.4413 13.672 13.708 13.672H23.468C23.724 13.672 23.9373 13.7573 24.108 13.928L27.308 17.128C27.4893 17.3093 27.58 17.5227 27.58 17.768V30.888C27.58 31.144 27.4893 31.3573 27.308 31.528L24.108 34.728C23.9373 34.9093 23.724 35 23.468 35H13.708ZM18.652 30.728H21.58C22.028 30.728 22.252 30.4293 22.252 29.832V18.84C22.252 18.232 22.028 17.928 21.58 17.928H18.652V30.728ZM37.343 35C37.0977 35 36.8843 34.9307 36.703 34.792L34.095 32.408L31.455 28.968C31.3377 28.8187 31.263 28.728 31.231 28.696C31.199 28.6533 31.183 28.5573 31.183 28.408V20.248C31.183 20.0987 31.199 20.0027 31.231 19.96C31.2737 19.9173 31.3483 19.8267 31.455 19.688L33.903 16.52L36.703 13.88C36.8203 13.784 36.911 13.7253 36.975 13.704C37.0497 13.6827 37.1723 13.672 37.343 13.672H41.295C41.5617 13.672 41.695 13.8053 41.695 14.072V16.632C41.695 16.7173 41.6843 16.808 41.663 16.904C41.6523 16.9893 41.599 17.064 41.503 17.128L38.495 19.192L36.527 21.72V26.952L38.527 29.48L41.503 31.528C41.5883 31.5813 41.6417 31.6453 41.663 31.72C41.6843 31.7947 41.695 31.8747 41.695 31.96V34.6C41.695 34.8667 41.5617 35 41.295 35H37.343ZM43.595 26.872C43.3283 26.872 43.195 26.7387 43.195 26.472V22.2C43.195 21.9333 43.3283 21.8 43.595 21.8H51.755C52.0217 21.8 52.155 21.9333 52.155 22.2V26.472C52.155 26.7387 52.0217 26.872 51.755 26.872H43.595ZM54.3088 35C54.0421 35 53.9088 34.8667 53.9088 34.6V31.592C53.9088 31.4533 53.9141 31.3413 53.9248 31.256C53.9461 31.1707 54.0101 31.1013 54.1168 31.048L58.3088 29.128V26.28L54.1808 23.72C53.9994 23.6133 53.9088 23.4533 53.9088 23.24V17.368C53.9088 17.1973 53.9194 17.0747 53.9408 17C53.9621 16.9147 54.0421 16.824 54.1808 16.728L58.3888 13.88C58.4954 13.816 58.5914 13.768 58.6768 13.736C58.7728 13.6933 58.8901 13.672 59.0288 13.672H63.3488C63.6154 13.672 63.7488 13.8053 63.7488 14.072V16.792C63.7488 17.0267 63.6688 17.1867 63.5088 17.272L59.3168 19V21.96L63.5088 24.36C63.6688 24.4347 63.7488 24.6053 63.7488 24.872V31.832C63.7488 31.9173 63.7328 32.008 63.7008 32.104C63.6794 32.2 63.6261 32.2693 63.5408 32.312L58.5168 34.808C58.4528 34.84 58.3728 34.8827 58.2768 34.936C58.1914 34.9787 58.1061 35 58.0208 35H54.3088ZM70.7875 35C70.5422 35 70.3288 34.9093 70.1475 34.728L67.4755 32.072C67.3048 31.8907 67.2195 31.6773 67.2195 31.432V21.128H66.5475C66.2808 21.128 66.1475 20.9947 66.1475 20.728V17.8C66.1475 17.5333 66.2808 17.4 66.5475 17.4H67.2195V15.4C67.2195 15.1333 67.3528 15 67.6195 15H71.8755C72.1422 15 72.2755 15.1333 72.2755 15.4V17.4H73.8275C74.0942 17.4 74.2275 17.5333 74.2275 17.8V20.728C74.2275 20.9947 74.0942 21.128 73.8275 21.128H72.2755V29.672C72.2755 29.8747 72.3395 30.04 72.4675 30.168L74.0355 31.752C74.1422 31.848 74.1955 32.008 74.1955 32.232V34.6C74.1955 34.8667 74.0622 35 73.7955 35H70.7875ZM81.1075 35C80.8622 35 80.6488 34.9093 80.4675 34.728L77.2675 31.528C77.0862 31.3573 76.9955 31.144 76.9955 30.888V21.512C76.9955 21.256 77.0862 21.0427 77.2675 20.872L80.4675 17.672C80.6488 17.4907 80.8622 17.4 81.1075 17.4H85.9555C86.2115 17.4 86.4248 17.4907 86.5955 17.672L89.7955 20.872C89.9768 21.0427 90.0675 21.256 90.0675 21.512V30.888C90.0675 31.144 89.9768 31.3573 89.7955 31.528L86.5955 34.728C86.4248 34.9093 86.2115 35 85.9555 35H81.1075ZM82.9795 31.272H84.0995C84.4408 31.272 84.6755 31.2027 84.8035 31.064C84.9315 30.9253 84.9955 30.68 84.9955 30.328V22.072C84.9955 21.72 84.9315 21.4747 84.8035 21.336C84.6755 21.1973 84.4408 21.128 84.0995 21.128H82.9795C82.6275 21.128 82.3875 21.1973 82.2595 21.336C82.1315 21.4747 82.0675 21.72 82.0675 22.072V30.328C82.0675 30.68 82.1315 30.9253 82.2595 31.064C82.3875 31.2027 82.6275 31.272 82.9795 31.272ZM94.195 35C93.9283 35 93.795 34.8667 93.795 34.6V17.8C93.795 17.5333 93.9283 17.4 94.195 17.4H96.627C96.8297 17.4 97.0057 17.4907 97.155 17.672L98.723 19.48L100.467 17.592C100.584 17.464 100.734 17.4 100.915 17.4H102.643C102.91 17.4 103.043 17.5333 103.043 17.8V21.24C103.043 21.4107 103.032 21.528 103.011 21.592C102.99 21.6453 102.931 21.704 102.835 21.768L98.867 24.696V34.6C98.867 34.8667 98.7337 35 98.467 35H94.195ZM112.119 35C112.013 35 111.895 34.984 111.767 34.952C111.65 34.92 111.538 34.8933 111.431 34.872L108.583 34.168L105.319 33.08C104.999 32.9733 104.839 32.664 104.839 32.152V21.512C104.839 21.256 104.93 21.0427 105.111 20.872L108.311 17.672C108.493 17.4907 108.706 17.4 108.951 17.4H114.071C114.317 17.4 114.53 17.4907 114.711 17.672L117.911 20.872C118.093 21.0427 118.183 21.256 118.183 21.512V28.072H109.591L109.479 30.2L111.751 30.952L115.831 31.24C116.013 31.272 116.103 31.3947 116.103 31.608V34.6C116.103 34.8667 115.97 35 115.703 35H112.119ZM111.479 25.56H111.783C112.306 25.56 112.722 25.3627 113.031 24.968C113.351 24.5733 113.511 24.04 113.511 23.368V23.048C113.511 22.3867 113.351 21.8587 113.031 21.464C112.722 21.0693 112.306 20.872 111.783 20.872H111.463C110.951 20.872 110.541 21.0693 110.231 21.464C109.933 21.8587 109.783 22.3867 109.783 23.048V23.368C109.783 24.04 109.933 24.5733 110.231 24.968C110.541 25.3627 110.957 25.56 111.479 25.56ZM121.418 35C121.151 35 121.018 34.8667 121.018 34.6V32.008C121.018 31.7627 121.098 31.6027 121.258 31.528L124.522 29.592V27.928L121.258 26.168C121.098 26.072 121.018 25.9067 121.018 25.672V20.568C121.018 20.4507 121.034 20.3547 121.066 20.28C121.108 20.2053 121.167 20.1413 121.242 20.088L124.65 17.592C124.767 17.5067 124.863 17.4533 124.938 17.432C125.012 17.4107 125.087 17.4 125.162 17.4H129.05C129.316 17.4 129.45 17.5333 129.45 17.8V20.312C129.45 20.4933 129.434 20.616 129.402 20.68C129.38 20.744 129.327 20.7973 129.242 20.84L126.218 22.472V24.328L129.45 25.928C129.631 26.0027 129.722 26.1627 129.722 26.408V31.32C129.722 31.5867 129.631 31.8 129.45 31.96L126.042 34.792C125.871 34.9307 125.658 35 125.402 35H121.418Z" fill="white"/>
</svg>
